<svg width="32" height="32" viewBox="0 0 32 32" fill="none" xmlns="http://www.w3.org/2000/svg">
<path fill-rule="evenodd" clip-rule="evenodd" d="M16 0C7.16 0 0 7.13718 0 15.949C0 23.0065 4.58 28.9674 10.94 31.0806C11.74 31.2202 12.04 30.7417 12.04 30.3231C12.04 29.9443 12.02 28.6883 12.02 27.3526C8 28.0902 6.96 26.3757 6.64 25.4786C6.46 25.02 5.68 23.6045 5 23.2258C4.44 22.9267 3.64 22.1891 4.98 22.1691C6.24 22.1492 7.14 23.3254 7.44 23.8039C8.88 26.2162 11.18 25.5384 12.1 25.1197C12.24 24.083 12.66 23.3852 13.12 22.9865C9.56 22.5878 5.84 21.2122 5.84 15.1117C5.84 13.3772 6.46 11.9418 7.48 10.8254C7.32 10.4267 6.76 8.79189 7.64 6.5989C7.64 6.5989 8.98 6.18024 12.04 8.23368C13.32 7.87483 14.68 7.6954 16.04 7.6954C17.4 7.6954 18.76 7.87483 20.04 8.23368C23.1 6.16031 24.44 6.5989 24.44 6.5989C25.32 8.79189 24.76 10.4267 24.6 10.8254C25.62 11.9418 26.24 13.3573 26.24 15.1117C26.24 21.2321 22.5 22.5878 18.94 22.9865C19.52 23.4849 20.02 24.4419 20.02 25.9371C20.02 28.0703 20 29.7848 20 30.3231C20 30.7417 20.3 31.2401 21.1 31.0806C27.42 28.9674 32 22.9865 32 15.949C32 7.13718 24.84 0 16 0Z" fill="#1B1F23"/>
</svg>
