<svg width="57" height="79" viewBox="0 0 57 79" fill="none" xmlns="http://www.w3.org/2000/svg">
<path d="M16.5 6L29 3L40.5 5.5L46 11.5L52 20.5L55 29L53 41.5L28.5 75.5L15 59L6.5 46L3 39.5L2 31.5L3 23L4.5 17L11.5 10.5L16.5 6Z" fill="#D76166"/>
<path d="M28.3518 0C12.7186 0 0 13.3377 0 29.7318C0 40.3151 3.06999 44.5593 17.8225 64.9541C20.3834 68.4943 23.286 72.5069 26.6071 77.1502C27.019 77.7261 27.6654 78.065 28.352 78.065C29.0385 78.065 29.6848 77.7259 30.0967 77.1499C33.3983 72.5316 36.2883 68.5342 38.8382 65.0074C53.6263 44.5533 56.7037 40.2968 56.7037 29.7318C56.7037 13.3377 43.985 0 28.3518 0ZM35.3626 62.2439C33.2683 65.1405 30.9451 68.354 28.3514 71.9699C25.74 68.3308 23.4035 65.1007 21.2976 62.1895C6.94751 42.3512 4.36182 38.7765 4.36182 29.7318C4.36182 15.8599 15.1237 4.57412 28.3518 4.57412C41.5799 4.57412 52.3419 15.8599 52.3419 29.7318C52.3419 38.7588 49.7495 42.3445 35.3626 62.2439Z" fill="#D76166"/>
<path d="M28.2664 13C19.8485 13 13 20.1818 13 29.0094C13 37.837 19.8485 45.0189 28.2664 45.0189C36.6843 45.0189 43.5327 37.837 43.5327 29.0094C43.5327 20.1818 36.6843 13 28.2664 13ZM28.2664 40.4447C22.2536 40.4447 17.3618 35.3149 17.3618 29.0094C17.3618 22.704 22.2536 17.5741 28.2664 17.5741C34.2791 17.5741 39.1709 22.704 39.1709 29.0094C39.1709 35.3149 34.2791 40.4447 28.2664 40.4447Z" fill="white"/>
</svg>
