<svg width="24" height="34" viewBox="0 0 24 34" fill="none" xmlns="http://www.w3.org/2000/svg">
<path d="M6.98482 2.53978L12.2755 1.27002L17.1429 2.32815L19.4708 4.86767L22.0103 8.67695L23.2801 12.2746L22.4336 17.5653L12.0639 31.9559L6.34995 24.9722L2.75229 19.4699L1.27091 16.7188L0.847656 13.3327L1.27091 9.73508L1.90579 7.19556L4.86856 4.44442L6.98482 2.53978Z" fill="#D76166"/>
<path d="M12 0C5.3832 0 0 5.64521 0 12.5841C0 17.0635 1.29938 18.8598 7.54345 27.492C8.62732 28.9904 9.85588 30.6887 11.2615 32.6541C11.4359 32.8978 11.7095 33.0413 12.0001 33.0413C12.2906 33.0413 12.5642 32.8977 12.7385 32.6539C14.1359 30.6992 15.3591 29.0073 16.4384 27.5146C22.6975 18.8573 24 17.0557 24 12.5841C24 5.64521 18.6168 0 12 0ZM14.9673 26.3449C14.0809 27.5709 13.0976 28.931 11.9998 30.4615C10.8945 28.9212 9.9056 27.5541 9.01428 26.3219C2.94055 17.9253 1.84615 16.4123 1.84615 12.5841C1.84615 6.71273 6.40117 1.93601 12 1.93601C17.5988 1.93601 22.1538 6.71273 22.1538 12.5841C22.1538 16.4048 21.0566 17.9224 14.9673 26.3449Z" fill="#D76166"/>
<path d="M11.9635 5.50244C8.4006 5.50244 5.50195 8.54217 5.50195 12.2785C5.50195 16.0148 8.4006 19.0545 11.9635 19.0545C15.5264 19.0545 18.425 16.0148 18.425 12.2785C18.425 8.54217 15.5264 5.50244 11.9635 5.50244ZM11.9635 17.1185C9.41857 17.1185 7.34811 14.9473 7.34811 12.2785C7.34811 9.60969 9.41857 7.43845 11.9635 7.43845C14.5084 7.43845 16.5789 9.60969 16.5789 12.2785C16.5789 14.9473 14.5084 17.1185 11.9635 17.1185Z" fill="white"/>
</svg>
