<svg width="80" height="80" viewBox="0 0 80 80" fill="none" xmlns="http://www.w3.org/2000/svg">
<path d="M40.1234 20.708C29.7472 20.708 21.3052 29.3681 21.3052 40.0124C21.3052 50.6566 29.7472 59.3167 40.1234 59.3167C50.4995 59.3167 58.9415 50.6566 58.9415 40.0124C58.9415 29.3681 50.4995 20.708 40.1234 20.708ZM40.1234 56.9036C31.0439 56.9036 23.6575 49.3264 23.6575 40.0124C23.6575 30.6983 31.0439 23.1211 40.1234 23.1211C49.2028 23.1211 56.5893 30.6983 56.5893 40.0124C56.5893 49.3264 49.2028 56.9036 40.1234 56.9036V56.9036Z" fill="#141414"/>
<path d="M41.2485 26.9689H39.0781V39.9776L45.9072 47.8384L47.4418 46.0721L41.2485 38.9431V26.9689Z" fill="#141414"/>
<rect x="1" y="1" width="78" height="78" rx="11" stroke="#141414" stroke-width="2"/>
</svg>
