<svg width="80" height="80" viewBox="0 0 80 80" fill="none" xmlns="http://www.w3.org/2000/svg">
<path d="M28.0832 40.4584C24.5082 40.4584 21.6665 43.3 21.6665 46.875C21.6665 50.45 24.5082 53.2917 28.0832 53.2917C31.6582 53.2917 34.4998 50.45 34.4998 46.875C34.4998 43.3 31.6582 40.4584 28.0832 40.4584ZM28.0832 51.4584C25.5165 51.4584 23.4998 49.4417 23.4998 46.875C23.4998 44.3084 25.5165 42.2917 28.0832 42.2917C30.6498 42.2917 32.6665 44.3084 32.6665 46.875C32.6664 49.4417 30.6498 51.4584 28.0832 51.4584Z" fill="#8838F8"/>
<path d="M28.0834 51.4584C22.4917 51.4584 18 55.95 18 61.5417H19.8333C19.8333 56.9583 23.5 53.2917 28.0833 53.2917C32.6665 53.2917 36.3332 56.9584 36.3332 61.5417H38.1666C38.1666 55.95 33.675 51.4584 28.0834 51.4584Z" fill="#8838F8"/>
<path d="M51.9167 40.4584C48.3417 40.4584 45.5 43.3 45.5 46.875C45.5 50.45 48.3417 53.2917 51.9167 53.2917C55.4917 53.2917 58.3333 50.45 58.3333 46.875C58.3333 43.3 55.4917 40.4584 51.9167 40.4584ZM51.9167 51.4584C49.35 51.4584 47.3333 49.4417 47.3333 46.875C47.3333 44.3084 49.3499 42.2917 51.9167 42.2917C54.4834 42.2917 56.5 44.3084 56.5 46.875C56.4999 49.4417 54.4833 51.4584 51.9167 51.4584Z" fill="#8838F8"/>
<path d="M51.9169 51.4584C46.3252 51.4584 41.8335 55.95 41.8335 61.5417H43.6668C43.6668 56.9583 47.3335 53.2917 51.9168 53.2917C56.5 53.2917 60.1667 56.9584 60.1667 61.5417H62.0001C62.0001 55.95 57.5085 51.4584 51.9169 51.4584Z" fill="#8838F8"/>
<path d="M40.0002 18.4584C36.4252 18.4584 33.5835 21.3 33.5835 24.875C33.5835 28.45 36.4252 31.2917 40.0002 31.2917C43.5752 31.2917 46.4168 28.45 46.4168 24.875C46.4168 21.3 43.5752 18.4584 40.0002 18.4584ZM40.0002 29.4584C37.4335 29.4584 35.4168 27.4417 35.4168 24.875C35.4168 22.3084 37.4335 20.2917 40.0002 20.2917C42.5668 20.2917 44.5835 22.3084 44.5835 24.875C44.5835 27.4417 42.5668 29.4584 40.0002 29.4584Z" fill="#8838F8"/>
<path d="M39.9999 29.4584C34.4082 29.4584 29.9165 33.95 29.9165 39.5417H31.7498C31.7498 34.9584 35.4165 31.2918 39.9998 31.2918C44.5831 31.2918 48.2498 34.9585 48.2498 39.5417H50.0831C50.0832 33.95 45.5915 29.4584 39.9999 29.4584Z" fill="#8838F8"/>
<rect x="1" y="1" width="78" height="78" rx="11" stroke="#8838F8" stroke-width="2"/>
</svg>
