<svg width="80" height="80" viewBox="0 0 80 80" fill="none" xmlns="http://www.w3.org/2000/svg">
<path d="M49.6249 61H28.6249C28.1629 61 27.7805 60.6412 27.7517 60.1792L26.0017 32.1793C25.9868 31.9386 26.0717 31.7015 26.237 31.5256C26.4024 31.3497 26.6334 31.25 26.8749 31.25H51.3749C51.6164 31.25 51.8474 31.3497 52.0128 31.5256C52.1782 31.7015 52.263 31.9386 52.2482 32.1793L50.4982 60.1792C50.4693 60.6412 50.0869 61 49.6249 61ZM29.4465 59.25H48.8024L50.443 33H27.8059L29.4465 59.25Z" fill="#8838F8"/>
<path d="M53.125 33H25.125C24.642 33 24.25 32.6089 24.25 32.125V25.125C24.25 24.6411 24.642 24.25 25.125 24.25H53.125C53.608 24.25 54 24.6411 54 25.125V32.125C54 32.6089 53.608 33 53.125 33ZM26 31.25H52.25V26H26V31.25Z" fill="#8838F8"/>
<path d="M51.3924 26C51.3872 25.9991 51.381 26 51.3749 26H26.8749C26.594 26 26.3298 25.8653 26.1653 25.6369C26.0008 25.4085 25.9562 25.1145 26.0445 24.8485L27.7945 19.5985C27.9144 19.2406 28.2478 19 28.6249 19H49.6249C50.002 19 50.3354 19.2406 50.4553 19.5985L52.1528 24.6919C52.2254 24.8196 52.2674 24.9675 52.2674 25.125C52.2674 25.6089 51.8754 26 51.3924 26ZM28.0885 24.25H50.1613L48.9949 20.75H29.2558L28.0885 24.25Z" fill="#8838F8"/>
<path d="M50.9375 40H27.3125C26.8295 40 26.4375 39.6089 26.4375 39.125C26.4375 38.6411 26.8295 38.25 27.3125 38.25H50.9375C51.4205 38.25 51.8125 38.6411 51.8125 39.125C51.8125 39.6089 51.4205 40 50.9375 40Z" fill="#8838F8"/>
<path d="M50.2812 48.75H27.9688V50.5H50.2812V48.75Z" fill="#8838F8"/>
<rect x="1" y="1" width="78" height="78" rx="11" stroke="#8838F8" stroke-width="2"/>
</svg>
