<svg width="80" height="80" viewBox="0 0 80 80" fill="none" xmlns="http://www.w3.org/2000/svg">
<path d="M19.5308 37.4885L27.9936 41.8941V49.2179C27.9936 50.2297 28.6708 51.6594 31.897 52.7248C34.0762 53.4444 36.9544 53.8407 40.0012 53.8407C43.0482 53.8407 45.9264 53.4444 48.1056 52.7248C51.3317 51.6594 52.0089 50.2297 52.0089 49.2179C52.0089 49.2112 52.0089 49.2045 52.0088 49.1978V41.8942L54.4832 40.6061V45.5769C54.4832 46.1191 54.9228 46.5586 55.4649 46.5586C56.007 46.5586 56.4467 46.1191 56.4467 45.5769V39.5838L60.4716 37.4885C60.7964 37.3194 61.0001 36.9838 61.0001 36.6177C61.0001 36.2516 60.7964 35.9159 60.4716 35.7469L40.4545 25.3263C40.1704 25.1783 39.832 25.1784 39.5479 25.3263L19.5308 35.7469C19.2061 35.9159 19.0024 36.2516 19.0024 36.6177C19.0024 36.9838 19.2061 37.3194 19.5308 37.4885V37.4885ZM50.0452 46.5482C49.5334 46.2549 48.8959 45.9721 48.1055 45.7111C45.9263 44.9914 43.0481 44.5951 40.0011 44.5951C36.9542 44.5951 34.076 44.9914 31.8969 45.7111C31.1064 45.9721 30.469 46.2549 29.957 46.5483V39.2163C29.957 38.8952 30.6376 38.193 32.5125 37.5739C34.4983 36.9181 37.1578 36.557 40.0011 36.557C42.8445 36.557 45.504 36.9182 47.4897 37.5739C49.3647 38.1931 50.0451 38.8953 50.0451 39.2163V46.5482H50.0452ZM47.4898 50.8603C45.504 51.5162 42.8446 51.8772 40.0012 51.8772C37.158 51.8772 34.4984 51.5161 32.5126 50.8603C30.6377 50.2412 29.9571 49.5389 29.9571 49.218C29.9571 48.897 30.6377 48.1947 32.5126 47.5756C34.4984 46.9198 37.1579 46.5587 40.0012 46.5587C42.8446 46.5587 45.504 46.9199 47.4898 47.5756C49.3536 48.1911 50.0372 48.8887 50.0452 49.2123V49.2181V49.2213C50.0407 49.5436 49.3584 50.2433 47.4898 50.8603ZM56.4466 37.3703V35.8652L57.8922 36.6177L56.4466 37.3703ZM40.0011 27.3039L54.4831 34.843V38.3925L52.0087 39.6805V39.2162C52.0087 38.2044 51.3316 36.7747 48.1055 35.7093C45.9263 34.9896 43.0481 34.5933 40.0011 34.5933C36.9542 34.5933 34.076 34.9896 31.8969 35.7093C28.6707 36.7747 27.9935 38.2044 27.9935 39.2162V39.6805L22.1103 36.6177L40.0011 27.3039Z" fill="#f0f0f0"/>
<rect x="1" y="1" width="78" height="78" rx="11" stroke="#f0f0f0" stroke-width="2"/>
</svg>
