<svg width="80" height="80" viewBox="0 0 80 80" fill="none" xmlns="http://www.w3.org/2000/svg">
<path d="M40 19C28.4206 19 19 28.4206 19 40C19 51.5794 28.4206 61 40 61C51.5794 61 61 51.5794 61 40C61 28.4206 51.5795 19 40 19ZM40 58.7297C34.8554 58.7297 30.189 56.6444 26.8006 53.2753C25.4475 51.9299 24.2989 50.3792 23.4045 48.6751C22.0425 46.08 21.2703 43.1286 21.2703 40C21.2703 29.6724 29.6724 21.2703 40 21.2703C44.8986 21.2703 49.3631 23.1615 52.7042 26.2511C54.4364 27.8528 55.8668 29.7763 56.8983 31.9262C58.0717 34.3723 58.7297 37.1108 58.7297 40C58.7297 50.3276 50.3276 58.7297 40 58.7297Z" fill="#f0f0f0"/>
<path d="M32.8218 35.2327C34.0421 35.2327 35.0349 36.1688 35.0349 37.4458H37.3052C37.3052 34.8917 35.294 32.9624 32.8218 32.9624C30.3496 32.9624 28.3384 34.8917 28.3384 37.4458H30.6087C30.6087 36.1688 31.6017 35.2327 32.8218 35.2327Z" fill="#f0f0f0"/>
<path d="M47.1777 35.2327C48.398 35.2327 49.3909 36.1688 49.3909 37.4458H51.6612C51.6612 34.8917 49.65 32.9624 47.1777 32.9624C44.7055 32.9624 42.6943 34.8917 42.6943 37.4458H44.9646C44.9646 36.1688 45.9575 35.2327 47.1777 35.2327Z" fill="#f0f0f0"/>
<path d="M39.96 51.6348C44.3522 51.6348 48.5615 49.3886 50.9716 45.6592L49.0646 44.427C46.8517 47.8516 42.8023 49.7629 38.75 49.2951C35.5911 48.9309 32.6699 47.1109 30.9356 44.427L29.0288 45.6592C31.1274 48.907 34.6643 51.1092 38.4897 51.5504C38.9808 51.6071 39.4712 51.6348 39.96 51.6348Z" fill="#f0f0f0"/>
<rect x="1" y="1" width="78" height="78" rx="11" stroke="#f0f0f0" stroke-width="2"/>
</svg>
