<svg width="80" height="80" viewBox="0 0 80 80" fill="none" xmlns="http://www.w3.org/2000/svg">
<path d="M40 20.7258C32.2804 20.7258 26 27.3119 26 35.4073C26 40.6332 27.5159 42.729 34.8007 52.7999C36.0652 54.548 37.4985 56.5294 39.1385 58.8223C39.3419 59.1066 39.6611 59.274 40.0001 59.274C40.3391 59.274 40.6582 59.1065 40.8616 58.8221C42.4919 56.5416 43.919 54.5677 45.1781 52.8262C52.4804 42.7261 54 40.6242 54 35.4073C54 27.3119 47.7196 20.7258 40 20.7258ZM43.4619 51.4616C42.4278 52.8919 41.2805 54.4787 39.9998 56.2642C38.7103 54.4673 37.5565 52.8723 36.5167 51.4347C29.4306 41.6387 28.1538 39.8735 28.1538 35.4073C28.1538 28.5574 33.468 22.9845 40 22.9845C46.532 22.9845 51.8462 28.5574 51.8462 35.4073C51.8462 39.8648 50.5661 41.6353 43.4619 51.4616Z" fill="#f0f0f0"/>
<path d="M40.2221 27.9302C36.0653 27.9302 32.6836 31.4765 32.6836 35.8356C32.6836 40.1946 36.0653 43.7409 40.2221 43.7409C44.3788 43.7409 47.7605 40.1946 47.7605 35.8356C47.7605 31.4765 44.3788 27.9302 40.2221 27.9302ZM40.2221 41.4823C37.253 41.4823 34.8374 38.9492 34.8374 35.8356C34.8374 32.722 37.253 30.1889 40.2221 30.1889C43.1911 30.1889 45.6067 32.722 45.6067 35.8356C45.6067 38.9492 43.1911 41.4823 40.2221 41.4823Z" fill="#f0f0f0"/>
<!-- <path d="M12 2H68V-2H12V2ZM78 12V68H82V12H78ZM68 78H12V82H68V78ZM2 68V12H-2V68H2ZM12 78C6.47715 78 2 73.5229 2 68H-2C-2 75.732 4.26801 82 12 82V78ZM78 68C78 73.5229 73.5229 78 68 78V82C75.732 82 82 75.732 82 68H78ZM68 2C73.5229 2 78 6.47715 78 12H82C82 4.26801 75.732 -2 68 -2V2ZM12 -2C4.26801 -2 -2 4.26801 -2 12H2C2 6.47715 6.47715 2 12 2V-2Z" fill="#f0f0f0"/> -->
<rect x="1" y="1" width="78" height="78" rx="11" stroke="#f0f0f0" stroke-width="2"/>

</svg>
