<svg width="169" height="31" viewBox="0 0 169 31" fill="none" xmlns="http://www.w3.org/2000/svg">
<g clip-path="url(#clip0_868_129)">
<path d="M39 15.4001H42.1693V28.0539H51.2547V30.7977H39V15.4001Z" fill="#F0F0F0"/>
<path d="M54.3184 15.4001H57.4877V28.0539H66.5704V30.7977H54.3184V15.4001Z" fill="#F0F0F0"/>
<path d="M72.4324 15.4001H69.2402V30.7977H72.4324V15.4001Z" fill="#F0F0F0"/>
<path d="M81.793 15.4001H85.1481L92.7016 30.7977H89.3668L88.1184 28.2145H78.9899L77.7821 30.7977H74.4473L81.793 15.4001ZM86.8666 25.6322L83.4912 18.6293L80.2172 25.6322H86.8666Z" fill="#F0F0F0"/>
<path d="M95.0938 15.4001H98.2631L108.002 20.425V15.4001H111.171V30.7977H108.002V23.7349L98.2631 18.7301V30.7994H95.0938V15.4001Z" fill="#F0F0F0"/>
<path d="M120.282 18.1448H114.535V15.4001H129.226V18.1448H123.453V30.7977H120.284L120.282 18.1448Z" fill="#F0F0F0"/>
<path d="M132.017 15.4001H135.168V23.8765C135.157 24.5084 135.26 25.1372 135.474 25.7329C135.641 26.2533 135.937 26.7246 136.334 27.1048C136.73 27.4959 137.212 27.7928 137.742 27.9731C138.385 28.1686 139.054 28.2639 139.727 28.2553C140.393 28.264 141.056 28.1687 141.692 27.9731C142.264 27.7708 142.755 27.4886 143.123 27.1048C143.52 26.7206 143.821 26.2511 144.003 25.7329C144.2 25.1335 144.297 24.5065 144.289 23.8765V15.4001H147.44V24.2568C147.44 25.2658 147.277 26.174 146.929 27.0015C146.604 27.8233 146.085 28.5567 145.415 29.141C144.714 29.7576 143.893 30.2247 143.001 30.5129C142.039 30.8359 140.955 30.9974 139.727 30.9974C138.498 30.9974 137.415 30.8359 136.453 30.5129C135.561 30.2245 134.739 29.7574 134.039 29.141C133.369 28.5567 132.85 27.8232 132.525 27.0015C132.173 26.174 132.014 25.2649 132.014 24.2568L132.017 15.4001Z" fill="#F0F0F0"/>
<path d="M151.322 15.4001H154.492L160.159 21.0102L165.826 15.4001H168.996V30.7977H165.826V19.7191L160.159 25.1025L154.492 19.7191V30.7977H151.322V15.4001Z" fill="#F0F0F0"/>
<path fill-rule="evenodd" clip-rule="evenodd" d="M24.0417 10.3015C19.3097 14.2505 13.185 21.763 11.6902 30.7933H-0.00195312L18.0156 0L24.0417 10.3015Z" fill="#F0F0F0"/>
<path fill-rule="evenodd" clip-rule="evenodd" d="M36.0335 30.7942H27.037L27.0273 15.3993L36.0335 30.7942Z" fill="#F0F0F0"/>
</g>
<defs>
<clipPath id="clip0_868_129">
<rect width="169" height="31" fill="white"/>
</clipPath>
</defs>
</svg>
