<svg width="25" height="26" viewBox="0 0 25 26" fill="none" xmlns="http://www.w3.org/2000/svg">
<path d="M12.6885 26C11.6276 26 10.6102 25.5786 9.86005 24.8284C9.1099 24.0783 8.68848 23.0609 8.68848 22C8.68848 21.7348 8.79383 21.4804 8.98137 21.2929C9.16891 21.1054 9.42326 21 9.68848 21H15.6885C15.9537 21 16.208 21.1054 16.3956 21.2929C16.5831 21.4804 16.6885 21.7348 16.6885 22C16.6885 23.0609 16.267 24.0783 15.5169 24.8284C14.7668 25.5786 13.7493 26 12.6885 26ZM10.9585 23C11.1343 23.3031 11.3866 23.5547 11.6903 23.7295C11.9939 23.9044 12.3381 23.9965 12.6885 23.9965C13.0389 23.9965 13.3831 23.9044 13.6867 23.7295C13.9903 23.5547 14.2427 23.3031 14.4185 23H10.9585Z" fill="#529DFC"/>
<path d="M14.6885 4H10.6885C10.4233 4 10.1689 3.89464 9.98137 3.70711C9.79383 3.51957 9.68848 3.26522 9.68848 3C9.68848 2.20435 10.0045 1.44129 10.5672 0.87868C11.1298 0.316071 11.8928 0 12.6885 0C13.4841 0 14.2472 0.316071 14.8098 0.87868C15.3724 1.44129 15.6885 2.20435 15.6885 3C15.6885 3.26522 15.5831 3.51957 15.3956 3.70711C15.208 3.89464 14.9537 4 14.6885 4Z" fill="#529DFC"/>
<path d="M23.6885 23H1.68848C1.42326 23 1.16891 22.8946 0.981372 22.7071C0.793836 22.5196 0.688479 22.2652 0.688479 22C0.687602 20.8707 0.959985 19.7579 1.48238 18.7566C2.00478 17.7553 2.76168 16.8953 3.68848 16.25V11C3.68843 8.62341 4.6284 6.34327 6.30327 4.65716C7.97814 2.97105 10.2519 2.01584 12.6285 2H12.7385C15.1254 2 17.4146 2.94821 19.1024 4.63604C20.7903 6.32387 21.7385 8.61305 21.7385 11V16.25C22.656 16.9009 23.4032 17.7633 23.9168 18.7642C24.4303 19.7651 24.695 20.8751 24.6885 22C24.6885 22.2652 24.5831 22.5196 24.3956 22.7071C24.208 22.8946 23.9537 23 23.6885 23ZM2.78848 21H22.5885C22.4468 20.3067 22.1597 19.6514 21.7459 19.0774C21.3322 18.5033 20.8014 18.0236 20.1885 17.67C20.0359 17.5819 19.9093 17.455 19.8215 17.3023C19.7337 17.1495 19.6878 16.9762 19.6885 16.8V11C19.6885 9.14348 18.951 7.36301 17.6382 6.05025C16.3255 4.7375 14.545 4 12.6885 4C10.832 4 9.05149 4.7375 7.73873 6.05025C6.42598 7.36301 5.68848 9.14348 5.68848 11V16.8C5.68918 16.9762 5.6433 17.1495 5.5555 17.3023C5.4677 17.455 5.34108 17.5819 5.18848 17.67C4.57559 18.0236 4.04473 18.5033 3.63101 19.0774C3.21728 19.6514 2.93011 20.3067 2.78848 21Z" fill="#529DFC"/>
</svg>
